<svg width="316" height="51" viewBox="0 0 316 51" version="1.1" xmlns="http://www.w3.org/2000/svg" xmlns:xlink="http://www.w3.org/1999/xlink">
<g id="Canvas" transform="translate(256 129)">
<g id="changeless you">
<use xlink:href="#path0_fill" transform="translate(-258 -147)" fill="#6C27C4"/>
</g>
</g>
<defs>
<path id="path0_fill" d="M 17.344 34.552C 17.0453 34.7227 16.6827 34.7867 16.256 34.744C 15.8293 34.6587 15.4667 34.3813 15.168 33.912C 14.4853 33.016 13.6533 32.568 12.672 32.568C 11.776 32.568 10.9653 32.7813 10.24 33.208C 9.55733 33.592 8.93867 34.1253 8.384 34.808C 7.872 35.448 7.44533 36.1733 7.104 36.984C 6.76267 37.7947 6.528 38.6053 6.4 39.416C 6.18667 40.9093 6.44267 42.168 7.168 43.192C 7.89333 44.216 9.024 44.728 10.56 44.728C 11.7973 44.7707 13.184 44.536 14.72 44.024C 16.2987 43.4693 17.7707 42.7653 19.136 41.912C 19.7333 41.656 20.288 41.5067 20.8 41.464C 21.312 41.4213 21.7387 41.6773 22.08 42.232C 22.5067 42.9147 22.4 43.6187 21.76 44.344C 21.12 45.0267 20.2667 45.6453 19.2 46.2C 18.1333 46.7973 17.0027 47.3307 15.808 47.8C 14.656 48.2267 13.4827 48.5467 12.288 48.76C 11.0933 48.9307 9.89867 48.9307 8.704 48.76C 7.552 48.5893 6.464 48.184 5.44 47.544C 3.81867 46.4347 2.83733 44.856 2.496 42.808C 2.15467 40.76 2.304 38.648 2.944 36.472C 3.2 35.6613 3.56267 34.8507 4.032 34.04C 4.50133 33.1867 5.056 32.4187 5.696 31.736C 6.37867 31.0533 7.12533 30.4773 7.936 30.008C 8.74667 29.496 9.64267 29.1547 10.624 28.984C 12.2027 28.728 13.7173 28.8987 15.168 29.496C 16.6187 30.0507 17.5787 31.096 18.048 32.632C 18.1333 32.9733 18.1333 33.336 18.048 33.72C 17.9627 34.0613 17.728 34.3387 17.344 34.552ZM 30.2915 22.648C 30.2915 23.672 30.2702 24.824 30.2275 26.104C 30.2275 27.384 30.2275 28.7067 30.2275 30.072C 30.2702 31.4373 30.2915 32.8453 30.2915 34.296C 30.3342 35.7467 30.3768 37.1333 30.4195 38.456C 30.8462 37.6027 31.3582 36.7707 31.9555 35.96C 32.5528 35.1067 33.2142 34.36 33.9395 33.72C 34.7075 33.08 35.4968 32.568 36.3075 32.184C 37.1608 31.8 38.0782 31.608 39.0595 31.608C 40.1262 31.608 41.0648 31.9493 41.8755 32.632C 42.7288 33.3147 43.4542 34.232 44.0515 35.384C 44.6915 36.4933 45.2248 37.752 45.6515 39.16C 46.0782 40.5253 46.4195 41.9333 46.6755 43.384C 46.9742 44.792 47.1875 46.1573 47.3155 47.48C 47.4435 48.76 47.5502 49.8693 47.6355 50.808C 47.6355 51.4907 47.4648 52.0453 47.1235 52.472C 46.7822 52.8987 46.3768 53.112 45.9075 53.112C 45.5662 53.112 45.1395 52.8987 44.6275 52.472C 44.1582 52.0027 43.8168 51.448 43.6035 50.808C 43.4755 50.296 43.3475 49.5493 43.2195 48.568C 43.0915 47.5867 42.9422 46.5413 42.7715 45.432C 42.6008 44.28 42.3875 43.128 42.1315 41.976C 41.8755 40.824 41.5555 39.8 41.1715 38.904C 40.8302 37.9653 40.4035 37.24 39.8915 36.728C 39.3795 36.216 38.7822 36.024 38.0995 36.152C 37.0328 36.3653 36.0942 37.112 35.2835 38.392C 34.5155 39.672 33.8328 41.1227 33.2355 42.744C 32.6808 44.3653 32.2115 46.008 31.8275 47.672C 31.4862 49.336 31.2302 50.68 31.0595 51.704C 30.8888 52.472 30.6542 53.0053 30.3555 53.304C 30.0995 53.56 29.8008 53.688 29.4595 53.688C 29.1182 53.688 28.7982 53.5173 28.4995 53.176C 28.2435 52.8347 27.9875 52.4293 27.7315 51.96C 27.5182 51.448 27.3262 50.936 27.1555 50.424C 26.9848 49.8693 26.8782 49.4 26.8355 49.016C 26.6222 46.712 26.4515 44.5147 26.3235 42.424C 26.1955 40.2907 26.0888 38.1573 26.0035 36.024C 25.9608 33.8907 25.9395 31.7147 25.9395 29.496C 25.9395 27.2347 25.9822 24.824 26.0675 22.264C 26.0675 20.1307 26.8355 19.1707 28.3715 19.384C 28.8835 19.4693 29.3315 19.8533 29.7155 20.536C 30.0995 21.176 30.2915 21.88 30.2915 22.648ZM 68.249 27.32C 68.4197 28.5147 68.5477 29.7947 68.633 31.16C 68.761 32.4827 68.8463 33.8267 68.889 35.192C 68.9743 36.5573 69.017 37.88 69.017 39.16C 69.017 40.44 68.9957 41.592 68.953 42.616C 70.3183 43.5547 71.129 44.3867 71.385 45.112C 71.6837 45.8373 71.7263 46.4773 71.513 47.032C 71.257 47.8 70.7877 48.2053 70.105 48.248C 69.465 48.248 68.7183 48.0133 67.865 47.544C 67.2677 47.9707 66.585 48.44 65.817 48.952C 65.049 49.4213 64.2383 49.8907 63.385 50.36C 62.5317 50.7867 61.6783 51.1707 60.825 51.512C 59.9717 51.8533 59.1823 52.088 58.457 52.216C 57.0917 52.4293 55.8543 52.1733 54.745 51.448C 53.6783 50.7227 52.953 49.6347 52.569 48.184C 52.313 47.2027 52.249 46.2 52.377 45.176C 52.505 44.1093 52.825 43.1067 53.337 42.168C 53.849 41.1867 54.5317 40.312 55.385 39.544C 56.281 38.776 57.3263 38.1787 58.521 37.752C 58.8197 37.624 59.225 37.5173 59.737 37.432C 60.2917 37.3467 60.8463 37.3253 61.401 37.368C 61.9983 37.368 62.5957 37.4747 63.193 37.688C 63.7903 37.9013 64.345 38.264 64.857 38.776C 64.857 38.0507 64.8357 37.2613 64.793 36.408C 64.793 35.512 64.7717 34.616 64.729 33.72C 64.6863 32.824 64.6223 31.992 64.537 31.224C 64.4943 30.4133 64.4303 29.7307 64.345 29.176C 64.2597 28.536 64.0037 28.152 63.577 28.024C 63.193 27.8533 62.7023 27.8747 62.105 28.088C 61.081 28.4293 59.8863 29.0907 58.521 30.072C 57.1557 31.0533 55.8543 32.0987 54.617 33.208C 54.233 33.592 53.785 33.7627 53.273 33.72C 52.8037 33.6773 52.3983 33.4853 52.057 33.144C 51.7157 32.8027 51.5237 32.4187 51.481 31.992C 51.4383 31.5227 51.609 31.032 51.993 30.52C 52.7183 29.752 53.529 28.9627 54.425 28.152C 55.321 27.3413 56.2597 26.616 57.241 25.976C 58.2223 25.2933 59.225 24.7387 60.249 24.312C 61.273 23.8853 62.297 23.6507 63.321 23.608C 64.8143 23.5653 65.9663 23.9067 66.777 24.632C 67.5877 25.3147 68.0783 26.2107 68.249 27.32ZM 60.825 41.08C 60.2703 41.208 59.673 41.4853 59.033 41.912C 58.4357 42.296 57.881 42.7867 57.369 43.384C 56.8997 43.9387 56.537 44.5787 56.281 45.304C 56.0677 45.9867 56.0677 46.6693 56.281 47.352C 56.3663 47.608 56.537 47.8 56.793 47.928C 57.0917 48.056 57.4117 48.0773 57.753 47.992C 58.777 47.7787 59.929 47.3733 61.209 46.776C 62.5317 46.136 63.577 45.4533 64.345 44.728C 64.345 44.472 64.217 44.152 63.961 43.768C 63.705 43.3413 63.4063 42.936 63.065 42.552C 62.7237 42.1253 62.3397 41.7627 61.913 41.464C 61.529 41.1653 61.1663 41.0373 60.825 41.08ZM 79.345 29.88C 79.473 30.52 79.601 31.2453 79.729 32.056C 79.8997 32.824 80.0703 33.6347 80.241 34.488C 80.4117 35.2987 80.561 36.1307 80.689 36.984C 80.817 37.8373 80.9237 38.648 81.009 39.416C 81.521 38.3067 82.0757 37.1333 82.673 35.896C 83.2703 34.6587 83.9103 33.528 84.593 32.504C 85.3183 31.4373 86.065 30.5627 86.833 29.88C 87.6437 29.1973 88.5183 28.856 89.457 28.856C 90.865 28.856 92.0383 29.368 92.977 30.392C 93.9583 31.416 94.769 32.696 95.409 34.232C 96.0917 35.7253 96.625 37.304 97.009 38.968C 97.393 40.632 97.713 42.104 97.969 43.384C 98.225 44.536 97.713 45.3893 96.433 45.944C 95.8357 46.2427 95.3877 46.2853 95.089 46.072C 94.7903 45.8587 94.6197 45.6453 94.577 45.432C 94.3637 44.92 94.0863 44.024 93.745 42.744C 93.4463 41.464 93.0837 40.1627 92.657 38.84C 92.273 37.5173 91.825 36.3653 91.313 35.384C 90.801 34.4027 90.225 33.9547 89.585 34.04C 88.817 34.0827 88.1343 34.6587 87.537 35.768C 87.025 36.664 86.4917 37.6667 85.937 38.776C 85.425 39.8427 84.913 40.952 84.401 42.104C 83.889 43.2133 83.377 44.344 82.865 45.496C 82.3957 46.6053 81.9477 47.6293 81.521 48.568C 81.2223 48.8667 80.8383 49.08 80.369 49.208C 79.9423 49.2933 79.4943 49.2507 79.025 49.08C 78.5983 48.952 78.257 48.7387 78.001 48.44C 77.745 48.1413 77.617 47.8427 77.617 47.544C 77.233 44.216 76.8277 41.1867 76.401 38.456C 76.017 35.7253 75.505 32.9307 74.865 30.072C 74.5663 29.0907 74.5023 28.3227 74.673 27.768C 74.8863 27.1707 75.5263 26.936 76.593 27.064C 78.0863 27.32 79.0037 28.2587 79.345 29.88ZM 114.022 33.336C 114.363 33.8053 114.683 34.4027 114.982 35.128C 115.323 35.8107 115.579 36.5147 115.75 37.24C 116.006 38.392 116.283 39.6507 116.582 41.016C 116.923 42.3387 117.243 43.7253 117.542 45.176C 117.883 46.6267 118.182 48.0987 118.438 49.592C 118.737 51.0853 118.993 52.5147 119.206 53.88C 119.462 55.7573 119.313 57.5493 118.758 59.256C 118.246 61.0053 117.371 62.5627 116.134 63.928C 114.897 65.2933 113.361 66.3813 111.526 67.192C 109.691 68.0027 107.622 68.4507 105.318 68.536C 104.806 68.4933 104.273 68.2373 103.718 67.768C 103.163 67.3413 102.886 66.8933 102.886 66.424C 102.843 65.9547 103.057 65.5707 103.526 65.272C 104.038 65.016 104.55 64.8453 105.062 64.76C 105.958 64.6747 106.875 64.4827 107.814 64.184C 108.795 63.928 109.713 63.544 110.566 63.032C 111.419 62.52 112.187 61.9013 112.87 61.176C 113.595 60.4507 114.15 59.5973 114.534 58.616C 114.833 57.848 114.982 56.9093 114.982 55.8C 114.982 54.648 114.897 53.5173 114.726 52.408C 114.598 51.2987 114.406 50.2533 114.15 49.272C 113.937 48.248 113.745 47.48 113.574 46.968C 113.275 47.2667 112.891 47.5867 112.422 47.928C 111.995 48.2693 111.505 48.5893 110.95 48.888C 110.395 49.1867 109.777 49.4213 109.094 49.592C 108.454 49.7627 107.793 49.8267 107.11 49.784C 106.385 49.7413 105.702 49.4853 105.062 49.016C 104.465 48.5467 103.931 47.9493 103.462 47.224C 102.993 46.456 102.609 45.5813 102.31 44.6C 102.054 43.6187 101.926 42.5947 101.926 41.528C 102.011 38.968 102.651 36.7067 103.846 34.744C 105.083 32.7387 107.046 31.1813 109.734 30.072C 109.947 30.0293 110.225 29.9867 110.566 29.944C 110.95 29.9013 111.334 29.9013 111.718 29.944C 112.102 29.944 112.465 29.9867 112.806 30.072C 113.19 30.1573 113.51 30.2853 113.766 30.456C 114.235 30.7973 114.47 31.288 114.47 31.928C 114.47 32.568 114.321 33.0373 114.022 33.336ZM 105.958 42.104C 105.958 42.5733 106.001 43.1067 106.086 43.704C 106.171 44.2587 106.449 44.664 106.918 44.92C 107.43 45.2187 108.049 45.2613 108.774 45.048C 109.542 44.8347 110.246 44.472 110.886 43.96C 111.483 43.4907 111.867 42.9787 112.038 42.424C 112.251 41.8267 112.251 41.0373 112.038 40.056C 111.825 39.0747 111.59 38.0507 111.334 36.984C 111.078 35.9173 110.907 34.9573 110.822 34.104C 110.31 34.36 109.755 34.7227 109.158 35.192C 108.603 35.6613 108.091 36.2587 107.622 36.984C 107.153 37.6667 106.747 38.4347 106.406 39.288C 106.107 40.1413 105.958 41.08 105.958 42.104ZM 139.549 35.96C 137.885 36.9413 136.093 37.7093 134.173 38.264C 132.254 38.776 130.184 39.032 127.966 39.032C 128.051 40.5253 128.477 41.72 129.245 42.616C 130.013 43.4693 130.974 43.9813 132.125 44.152C 132.808 44.2373 133.491 44.216 134.173 44.088C 134.899 43.96 135.56 43.768 136.157 43.512C 136.797 43.2133 137.374 42.8933 137.886 42.552C 138.398 42.2107 138.846 41.8693 139.23 41.528C 139.613 41.1867 140.019 40.9733 140.446 40.888C 140.872 40.76 141.192 40.7387 141.405 40.824C 142.003 41.0373 142.216 41.6773 142.046 42.744C 141.363 44.1093 140.381 45.2827 139.101 46.264C 137.821 47.2027 136.392 47.8 134.814 48.056C 133.448 48.312 132.04 48.248 130.589 47.864C 129.139 47.48 127.838 46.7333 126.686 45.624C 125.704 44.6427 124.957 43.4907 124.445 42.168C 123.933 40.8453 123.614 39.48 123.486 38.072C 123.358 36.7493 123.464 35.4907 123.805 34.296C 124.189 33.1013 124.766 32.056 125.534 31.16C 126.302 30.2213 127.261 29.4533 128.413 28.856C 129.565 28.2587 130.91 27.9173 132.446 27.832C 134.28 27.704 135.944 28.0453 137.438 28.856C 138.931 29.6667 139.976 30.7973 140.573 32.248C 140.915 33.0587 141 33.7627 140.829 34.36C 140.702 34.9573 140.275 35.4907 139.549 35.96ZM 132.19 31.608C 131.763 31.6933 131.293 31.8427 130.781 32.056C 130.312 32.2693 129.864 32.5467 129.438 32.888C 129.054 33.1867 128.691 33.5493 128.35 33.976C 128.051 34.36 127.88 34.808 127.838 35.32C 128.563 35.32 129.352 35.256 130.206 35.128C 131.101 35 131.955 34.8507 132.766 34.68C 133.619 34.4667 134.387 34.232 135.07 33.976C 135.795 33.72 136.392 33.4427 136.862 33.144C 136.52 32.3333 135.88 31.8427 134.941 31.672C 134.046 31.4587 133.128 31.4373 132.19 31.608ZM 151.875 21.048C 152.088 25.6987 152.451 30.52 152.963 35.512C 153.475 40.4613 154.03 45.1973 154.627 49.72C 154.755 51.5973 154.243 52.5573 153.091 52.6C 152.835 52.6 152.579 52.5147 152.323 52.344C 152.067 52.1307 151.832 51.8747 151.619 51.576C 151.406 51.2773 151.192 50.9573 150.979 50.616C 150.808 50.2747 150.702 49.976 150.659 49.72C 150.318 47.544 149.998 45.24 149.699 42.808C 149.4 40.376 149.123 37.944 148.867 35.512C 148.654 33.0373 148.462 30.6267 148.291 28.28C 148.12 25.9333 148.014 23.7787 147.971 21.816C 148.056 20.792 148.206 19.9387 148.419 19.256C 148.632 18.5307 149.08 18.1893 149.763 18.232C 150.488 18.2747 151 18.5733 151.299 19.128C 151.64 19.64 151.832 20.28 151.875 21.048ZM 175.362 35.96C 173.698 36.9413 171.906 37.7093 169.986 38.264C 168.066 38.776 165.997 39.032 163.778 39.032C 163.863 40.5253 164.29 41.72 165.058 42.616C 165.826 43.4693 166.786 43.9813 167.938 44.152C 168.621 44.2373 169.303 44.216 169.986 44.088C 170.711 43.96 171.373 43.768 171.97 43.512C 172.61 43.2133 173.186 42.8933 173.698 42.552C 174.21 42.2107 174.658 41.8693 175.042 41.528C 175.426 41.1867 175.831 40.9733 176.258 40.888C 176.685 40.76 177.005 40.7387 177.218 40.824C 177.815 41.0373 178.029 41.6773 177.858 42.744C 177.175 44.1093 176.194 45.2827 174.914 46.264C 173.634 47.2027 172.205 47.8 170.626 48.056C 169.261 48.312 167.853 48.248 166.402 47.864C 164.951 47.48 163.65 46.7333 162.498 45.624C 161.517 44.6427 160.77 43.4907 160.258 42.168C 159.746 40.8453 159.426 39.48 159.298 38.072C 159.17 36.7493 159.277 35.4907 159.618 34.296C 160.002 33.1013 160.578 32.056 161.346 31.16C 162.114 30.2213 163.074 29.4533 164.226 28.856C 165.378 28.2587 166.722 27.9173 168.258 27.832C 170.093 27.704 171.757 28.0453 173.25 28.856C 174.743 29.6667 175.789 30.7973 176.386 32.248C 176.727 33.0587 176.813 33.7627 176.642 34.36C 176.514 34.9573 176.087 35.4907 175.362 35.96ZM 168.002 31.608C 167.575 31.6933 167.106 31.8427 166.594 32.056C 166.125 32.2693 165.677 32.5467 165.25 32.888C 164.866 33.1867 164.503 33.5493 164.162 33.976C 163.863 34.36 163.693 34.808 163.65 35.32C 164.375 35.32 165.165 35.256 166.018 35.128C 166.914 35 167.767 34.8507 168.578 34.68C 169.431 34.4667 170.199 34.232 170.882 33.976C 171.607 33.72 172.205 33.4427 172.674 33.144C 172.333 32.3333 171.693 31.8427 170.754 31.672C 169.858 31.4587 168.941 31.4373 168.002 31.608ZM 194.28 31.864C 194.194 31.3947 194.109 30.9467 194.024 30.52C 193.938 30.0933 193.725 29.816 193.383 29.688C 192.658 29.4747 191.89 29.4533 191.079 29.624C 190.269 29.7947 189.522 30.072 188.839 30.456C 188.157 30.7973 187.581 31.2027 187.112 31.672C 186.642 32.0987 186.386 32.4827 186.344 32.824C 186.216 33.464 186.386 34.0827 186.856 34.68C 187.325 35.2773 188.007 35.8747 188.904 36.472C 190.397 37.368 191.954 38.2853 193.576 39.224C 195.197 40.1627 196.562 41.1227 197.672 42.104C 198.781 43.0853 199.527 44.1733 199.911 45.368C 200.338 46.52 200.253 47.8427 199.655 49.336C 199.186 50.488 198.311 51.4267 197.031 52.152C 195.751 52.8773 194.344 53.4533 192.808 53.88C 191.272 54.264 189.736 54.5413 188.2 54.712C 186.663 54.84 185.362 54.904 184.296 54.904C 184.04 54.904 183.719 54.8187 183.335 54.648C 182.994 54.4347 182.653 54.2 182.311 53.944C 182.013 53.688 181.736 53.432 181.48 53.176C 181.266 52.8773 181.16 52.6213 181.16 52.408C 181.16 51.64 181.501 51.1067 182.184 50.808C 182.866 50.5093 183.57 50.36 184.296 50.36C 185.32 50.36 186.408 50.3173 187.56 50.232C 188.754 50.104 189.885 49.9333 190.952 49.72C 192.018 49.464 192.978 49.144 193.832 48.76C 194.685 48.376 195.282 47.8853 195.624 47.288C 195.922 46.776 195.73 46.1787 195.048 45.496C 194.408 44.7707 193.533 44.024 192.423 43.256C 191.357 42.488 190.184 41.7413 188.904 41.016C 187.666 40.2907 186.599 39.6293 185.703 39.032C 184.808 38.4347 184.039 37.7307 183.399 36.92C 182.76 36.0667 182.354 35.0213 182.184 33.784C 182.141 32.6747 182.375 31.608 182.887 30.584C 183.399 29.56 184.061 28.664 184.871 27.896C 185.725 27.0853 186.685 26.4453 187.751 25.976C 188.818 25.5067 189.885 25.272 190.952 25.272C 192.786 25.3573 194.301 25.8693 195.495 26.808C 196.69 27.704 197.394 29.048 197.608 30.84C 197.608 31.4373 197.501 31.928 197.287 32.312C 197.117 32.696 196.797 32.9307 196.327 33.016C 195.73 33.1013 195.239 33.0373 194.856 32.824C 194.514 32.568 194.322 32.248 194.28 31.864ZM 215.967 31.864C 215.882 31.3947 215.796 30.9467 215.711 30.52C 215.626 30.0933 215.412 29.816 215.071 29.688C 214.346 29.4747 213.578 29.4533 212.767 29.624C 211.956 29.7947 211.21 30.072 210.527 30.456C 209.844 30.7973 209.268 31.2027 208.799 31.672C 208.33 32.0987 208.074 32.4827 208.031 32.824C 207.903 33.464 208.074 34.0827 208.543 34.68C 209.012 35.2773 209.695 35.8747 210.591 36.472C 212.084 37.368 213.642 38.2853 215.263 39.224C 216.884 40.1627 218.25 41.1227 219.359 42.104C 220.468 43.0853 221.215 44.1733 221.599 45.368C 222.026 46.52 221.94 47.8427 221.343 49.336C 220.874 50.488 219.999 51.4267 218.719 52.152C 217.439 52.8773 216.031 53.4533 214.495 53.88C 212.959 54.264 211.423 54.5413 209.887 54.712C 208.351 54.84 207.05 54.904 205.983 54.904C 205.727 54.904 205.407 54.8187 205.023 54.648C 204.682 54.4347 204.34 54.2 203.999 53.944C 203.7 53.688 203.423 53.432 203.167 53.176C 202.954 52.8773 202.847 52.6213 202.847 52.408C 202.847 51.64 203.188 51.1067 203.871 50.808C 204.554 50.5093 205.258 50.36 205.983 50.36C 207.007 50.36 208.095 50.3173 209.247 50.232C 210.442 50.104 211.572 49.9333 212.639 49.72C 213.706 49.464 214.666 49.144 215.519 48.76C 216.372 48.376 216.97 47.8853 217.311 47.288C 217.61 46.776 217.418 46.1787 216.735 45.496C 216.095 44.7707 215.22 44.024 214.111 43.256C 213.044 42.488 211.871 41.7413 210.591 41.016C 209.354 40.2907 208.287 39.6293 207.391 39.032C 206.495 38.4347 205.727 37.7307 205.087 36.92C 204.447 36.0667 204.042 35.0213 203.871 33.784C 203.828 32.6747 204.063 31.608 204.575 30.584C 205.087 29.56 205.748 28.664 206.559 27.896C 207.412 27.0853 208.372 26.4453 209.439 25.976C 210.506 25.5067 211.572 25.272 212.639 25.272C 214.474 25.3573 215.988 25.8693 217.183 26.808C 218.378 27.704 219.082 29.048 219.295 30.84C 219.295 31.4373 219.188 31.928 218.975 32.312C 218.804 32.696 218.484 32.9307 218.015 33.016C 217.418 33.1013 216.927 33.0373 216.543 32.824C 216.202 32.568 216.01 32.248 215.967 31.864ZM 263.464 30.84C 263.592 33.144 263.72 35.4693 263.848 37.816C 264.019 40.1627 264.061 42.488 263.976 44.792C 263.891 47.0533 263.656 49.272 263.272 51.448C 262.931 53.624 262.333 55.7147 261.48 57.72C 260.627 59.6827 259.475 61.5173 258.024 63.224C 256.616 64.9307 254.824 66.4667 252.648 67.832C 252.307 68.0453 251.923 68.1733 251.496 68.216C 251.112 68.2587 250.728 68.2373 250.344 68.152C 249.96 68.1093 249.619 68.0027 249.32 67.832C 249.021 67.704 248.829 67.512 248.744 67.256C 248.616 66.872 248.68 66.4453 248.936 65.976C 249.192 65.5067 249.619 65.016 250.216 64.504C 252.093 63.096 253.672 61.6027 254.952 60.024C 256.232 58.4453 257.256 56.7387 258.024 54.904C 258.792 53.0693 259.283 51.0853 259.496 48.952C 259.752 46.776 259.752 44.408 259.496 41.848C 258.984 42.488 258.387 43.1493 257.704 43.832C 257.021 44.5147 256.296 45.1333 255.528 45.688C 254.76 46.2 253.971 46.648 253.16 47.032C 252.349 47.3733 251.581 47.544 250.856 47.544C 250.259 47.544 249.661 47.416 249.064 47.16C 248.467 46.904 247.869 46.4133 247.272 45.688C 246.589 44.792 245.971 43.7893 245.416 42.68C 244.904 41.528 244.456 40.4187 244.072 39.352C 243.688 38.2853 243.368 37.3253 243.112 36.472C 242.899 35.6187 242.771 35.0213 242.728 34.68C 242.643 34.2533 242.643 33.848 242.728 33.464C 242.813 33.08 243.091 32.8453 243.56 32.76C 244.2 32.632 244.797 32.6747 245.352 32.888C 245.907 33.1013 246.291 33.4427 246.504 33.912C 246.675 34.3813 246.909 35.1067 247.208 36.088C 247.507 37.0693 247.869 38.0507 248.296 39.032C 248.723 39.9707 249.171 40.8027 249.64 41.528C 250.152 42.2533 250.685 42.616 251.24 42.616C 251.88 42.616 252.627 42.296 253.48 41.656C 254.376 41.016 255.229 40.184 256.04 39.16C 256.851 38.136 257.533 37.0053 258.088 35.768C 258.685 34.488 258.984 33.2507 258.984 32.056C 258.984 31.8 259.027 31.5013 259.112 31.16C 259.197 30.8187 259.325 30.4987 259.496 30.2C 259.667 29.8587 259.859 29.5813 260.072 29.368C 260.328 29.112 260.584 28.9627 260.84 28.92C 261.523 28.8347 262.12 29.0267 262.632 29.496C 263.187 29.9227 263.464 30.3707 263.464 30.84ZM 284.344 28.664C 285.624 29.1333 286.691 29.8373 287.544 30.776C 288.44 31.7147 289.123 32.7813 289.592 33.976C 290.061 35.128 290.317 36.3227 290.36 37.56C 290.445 38.7973 290.317 39.9493 289.976 41.016C 289.507 42.2107 288.909 43.384 288.184 44.536C 287.459 45.688 286.627 46.712 285.688 47.608C 284.749 48.504 283.683 49.2293 282.488 49.784C 281.293 50.3387 279.971 50.616 278.52 50.616C 276.771 50.616 275.299 50.2107 274.104 49.4C 272.909 48.5893 271.971 47.544 271.288 46.264C 270.605 44.984 270.157 43.5333 269.944 41.912C 269.773 40.2907 269.816 38.6693 270.072 37.048C 270.243 35.8533 270.52 34.7013 270.904 33.592C 271.331 32.44 271.864 31.4373 272.504 30.584C 273.144 29.688 273.869 28.9627 274.68 28.408C 275.533 27.8533 276.493 27.576 277.56 27.576C 278.157 27.576 278.904 27.704 279.8 27.96C 280.696 28.1733 281.528 28.4933 282.296 28.92C 282.851 28.408 283.533 28.3227 284.344 28.664ZM 281.912 33.336C 281.443 33.0373 280.888 32.6533 280.248 32.184C 279.651 31.672 279.117 31.416 278.648 31.416C 278.136 31.416 277.624 31.6507 277.112 32.12C 276.643 32.5893 276.216 33.144 275.832 33.784C 275.491 34.3813 275.192 35 274.936 35.64C 274.68 36.28 274.509 36.792 274.424 37.176C 274.296 37.816 274.211 38.584 274.168 39.48C 274.125 40.376 274.189 41.272 274.36 42.168C 274.531 43.0213 274.851 43.8107 275.32 44.536C 275.832 45.2187 276.579 45.7093 277.56 46.008C 278.157 46.1787 278.861 46.1787 279.672 46.008C 280.483 45.7947 281.272 45.432 282.04 44.92C 282.851 44.408 283.597 43.7253 284.28 42.872C 285.005 42.0187 285.56 41.0373 285.944 39.928C 286.371 38.6907 286.371 37.4107 285.944 36.088C 285.56 34.7227 284.749 33.7413 283.512 33.144C 283.213 33.3573 282.915 33.464 282.616 33.464C 282.317 33.464 282.083 33.4213 281.912 33.336ZM 301.003 32.056C 300.747 33.208 300.491 34.488 300.235 35.896C 299.979 37.2613 299.787 38.584 299.659 39.864C 299.574 41.144 299.574 42.296 299.659 43.32C 299.787 44.344 300.064 45.0693 300.491 45.496C 301.216 45.624 302.048 45.3253 302.987 44.6C 303.926 43.832 304.843 42.872 305.739 41.72C 306.635 40.568 307.446 39.3307 308.171 38.008C 308.896 36.6427 309.408 35.448 309.707 34.424C 309.878 33.912 310.027 33.3787 310.155 32.824C 310.283 32.2693 310.347 31.6933 310.347 31.096C 310.347 30.7547 310.56 30.4347 310.987 30.136C 311.456 29.7947 311.84 29.6027 312.139 29.56C 312.352 29.5173 312.587 29.56 312.843 29.688C 313.142 29.816 313.398 30.008 313.611 30.264C 313.867 30.4773 314.08 30.7547 314.251 31.096C 314.464 31.3947 314.571 31.7147 314.571 32.056C 314.656 33.336 314.784 34.744 314.955 36.28C 315.126 37.816 315.318 39.352 315.531 40.888C 315.787 42.424 316.043 43.9173 316.299 45.368C 316.555 46.8187 316.811 48.12 317.067 49.272C 317.195 49.7413 317.067 50.2747 316.683 50.872C 316.299 51.4693 315.872 51.832 315.403 51.96C 315.019 52.0453 314.614 52.0027 314.187 51.832C 313.803 51.6613 313.504 51.32 313.291 50.808C 313.078 50.2107 312.864 49.4853 312.651 48.632C 312.48 47.736 312.31 46.8187 312.139 45.88C 312.011 44.8987 311.883 43.9813 311.755 43.128C 311.627 42.232 311.542 41.4853 311.499 40.888C 310.859 42.04 310.091 43.2133 309.195 44.408C 308.342 45.56 307.403 46.6267 306.379 47.608C 305.398 48.5467 304.352 49.2933 303.243 49.848C 302.176 50.36 301.067 50.552 299.915 50.424C 298.208 50.2107 296.907 48.6107 296.011 45.624C 295.67 44.4293 295.499 43.1067 295.499 41.656C 295.542 40.2053 295.648 38.776 295.819 37.368C 296.032 35.9173 296.267 34.552 296.523 33.272C 296.822 31.992 297.078 30.9467 297.291 30.136C 297.376 29.7947 297.547 29.496 297.803 29.24C 298.059 28.9413 298.358 28.8347 298.699 28.92C 299.339 29.048 299.915 29.432 300.427 30.072C 300.982 30.712 301.174 31.3733 301.003 32.056Z"/>
</defs>
</svg>
